<svg xmlns="http://www.w3.org/2000/svg" id="traffic-cone" viewBox="0 0 20 20" width="64" height="64"><path d="M10 12.078c2.39 0 4.392-.812 4.513-1.873l-1.125-3.152c-.264.76-1.725 1.3-3.388 1.3s-3.124-.54-3.388-1.3c-.38 1.068-.77 2.156-1.124 3.152.12 1.06 2.122 1.873 4.512 1.873zm0-6.705c1.124 0 2.167-.348 2.473-.89l-1.01-2.835C11.31 1.22 10.62 1 10 1s-1.31.22-1.462.648l-1.01 2.836c.305.54 1.35.89 2.472.89zm8.78 7.693l-3.755-1.514.433 1.207c-.022 1.278-2.504 2.298-5.458 2.298-2.953 0-5.437-1.02-5.458-2.3l.433-1.206-3.755 1.514c-1.053.424-1.098 1.21-.098 1.744l7.062 3.787c.998.535 2.633.535 3.632 0l7.063-3.787c.998-.535.953-1.32-.1-1.744z"/></svg>