<svg xmlns="http://www.w3.org/2000/svg" id="city" viewBox="0 0 1024 1234" width="64" height="64"><path d="M992 1029H32q-13 0-22.5-9.5T0 997V293q0-13 9.5-22.5T32 261h224V37q0-13 9.5-22.5T288 5h192q13 0 22.5 9.5T512 37v288h64v-96q0-13 9.5-22.5T608 197h32q0-31 18-55.5t47-34.5q2-44 11-73t20-29 20 29 11 73q29 10 47 34.5t18 55.5h32q13 0 22.5 9.5T896 229v288h96q13 0 22.5 9.5t9.5 22.5v448q0 13-9.5 22.5T992 1029zM128 325H64v64h64v-64zm0 128H64v64h64v-64zm0 256H64v64h64v-64zm128-384h-64v64h64v-64zm0 256h-64v64h64v-64zm64 320h64v-64h-64v64zm0-128h64v-64h-64v64zm64-704h-64v64h64V69zm64 128h-64v64h64v-64zm0 128h-64v64h64v-64zm0 256h-64v64h64v-64zm128-192h-64v64h64v-64zm0 128h-64v64h64v-64zm0 256h-64v64h64v-64zm128-448h-64v64h64v-64zm0 128h-64v64h64v-64zm0 320h-64v64h64v-64zm128-384h-64v64h64v-64zm0 256h-64v64h64v-64zm0 192h-64v64h64v-64zm128-256h-64v64h64v-64zm0 128h-64v64h64v-64zm0 128h-64v64h64v-64z"/></svg>