<svg xmlns="http://www.w3.org/2000/svg" id="building" viewBox="0 0 1024 1234" width="64" height="64"><path d="M992 1029H32q-13 0-22.5-9.5T0 997t9.5-22.5T32 965h32q27 0 45.5-19t18.5-45V69q0-26 19-45t45-19h640q27 0 45.5 19T896 69v832q0 27 19 45.5t45 18.5h32q13 0 22.5 9.5t9.5 22.5-9.5 22.5-22.5 9.5zM384 165q0-13-9.5-22.5T352 133h-64q-13 0-22.5 9.5T256 165v64q0 13 9.5 22.5T288 261h64q13 0 22.5-9.5T384 229v-64zm0 192q0-13-9.5-22.5T352 325h-64q-13 0-22.5 9.5T256 357v64q0 13 9.5 22.5T288 453h64q13 0 22.5-9.5T384 421v-64zm0 192q0-13-9.5-22.5T352 517h-64q-13 0-22.5 9.5T256 549v64q0 13 9.5 22.5T288 645h64q13 0 22.5-9.5T384 613v-64zm192-384q0-13-9.5-22.5T544 133h-64q-13 0-22.5 9.5T448 165v64q0 13 9.5 22.5T480 261h64q13 0 22.5-9.5T576 229v-64zm0 192q0-13-9.5-22.5T544 325h-64q-13 0-22.5 9.5T448 357v64q0 13 9.5 22.5T480 453h64q13 0 22.5-9.5T576 421v-64zm0 192q0-13-9.5-22.5T544 517h-64q-13 0-22.5 9.5T448 549v64q0 13 9.5 22.5T480 645h64q13 0 22.5-9.5T576 613v-64zm32 224H416q-13 0-22.5 9.5T384 805v128q0 13 9.5 22.5T416 965h192q13 0 22.5-9.5T640 933V805q0-13-9.5-22.5T608 773zm160-608q0-13-9.5-22.5T736 133h-64q-13 0-22.5 9.5T640 165v64q0 13 9.5 22.5T672 261h64q13 0 22.5-9.5T768 229v-64zm0 192q0-13-9.5-22.5T736 325h-64q-13 0-22.5 9.5T640 357v64q0 13 9.5 22.5T672 453h64q13 0 22.5-9.5T768 421v-64zm0 192q0-13-9.5-22.5T736 517h-64q-13 0-22.5 9.5T640 549v64q0 13 9.5 22.5T672 645h64q13 0 22.5-9.5T768 613v-64z"/></svg>