<?xml version="1.0" encoding="iso-8859-1"?>
<!-- Generator: Adobe Illustrator 19.2.0, SVG Export Plug-In . SVG Version: 6.00 Build 0)  -->
<svg version="1.1" xmlns="http://www.w3.org/2000/svg" xmlns:xlink="http://www.w3.org/1999/xlink" x="0px" y="0px"
	 viewBox="0 0 103.708 79.008" style="enable-background:new 0 0 103.708 79.008;" xml:space="preserve">
<g id="John_x5F_Hoole_x5F_Estate_x5F_Agents">
	<path fill="#fff" style="fill-rule:evenodd;clip-rule:evenodd;" d="M98.015,35.365c3.287,4.139,6.156,8.951,5.631,16.292
		c-0.782,10.907-8.324,16.883-17.371,19.408c-0.078,2.597,0.157,5.509-0.12,7.907c-2.318-0.078-4.949,0.157-7.068-0.12
		c-0.042-5.005,0.033-9.79,0.12-14.376c11.96,1.807,20.715-8.974,16.532-20.126c-1.083-2.888-3.546-5.297-6.109-6.948
		c4.78-5.921,1.226-15.84-5.032-17.371c0.835-2.343,1.084-5.247,0.12-7.547c-3.428-8.186-18.008-6.338-16.892,4.552
		c0.1,0.97,0.493,1.666,0.719,2.995c-2.552,1.106-4.459,2.252-5.99,4.912c-0.753,1.308-1.999,3.666-1.558,5.271
		c0.251,0.916,3.509,2.499,4.552,3.115c4.78,2.823,10.308,5.58,14.376,8.386c-0.197,2.757,0.065,5.202-0.239,7.787
		c-1.947-0.069-3.496,0.031-5.87,0c-0.221,10.17-0.134,20.118-0.24,29.351c-5.586,0.236-52.565,0.14-67.087,0.12
		c-0.07-8.575,0.096-20.916,0-29.351c-2.057-0.364-4.454,0-6.35-0.239c0.751-2.304-0.696-5.384,0.12-7.547
		c0.356-0.944,3.444-2.327,4.792-3.115C15.128,32.826,24.738,27.069,35,21.348c1.3-0.725,3.811-2.845,4.912-2.875
		c0.853-0.024,2.686,1.51,3.594,2.036c3.48,2.018,7.307,4.271,10.542,5.99c1.334-4.177,3.583-7.439,6.589-9.943
		c-0.164-9.963,8.18-18.145,18.808-16.293c6.512,1.135,11.516,6.078,12.699,12.459c0.189,1.016-0.15,2.39,0.239,3.714
		c0.272,0.922,1.522,1.449,2.276,2.396C97.758,22.718,100.049,29.202,98.015,35.365z M65.789,49.621c0-1.852,0.482-6.14,0-7.188
		c-0.244-0.529-2.037-1.292-3.115-1.917c-3.293-1.909-6.73-4.005-9.584-5.631c-4.733-2.697-8.409-5.479-12.818-7.547
		c-0.319-0.15-0.496,0.178-0.599,0.239c-8.442,5.043-17.19,9.668-25.517,14.855c0.095,10.479-0.347,18.403,0,28.872
		c16.879,0.109,33.851,0.067,51.514,0C65.738,64.009,65.789,57.694,65.789,49.621z"/>
</g>
<g id="Layer_1">
</g>
</svg>
