<svg xmlns="http://www.w3.org/2000/svg" id="trees" viewBox="0 0 431.4444 512.5" width="64" height="64"><path d="M431 415.25c1 1 0 2 0 3 0 4-2 7-6 7h-72v20c0 3-3 5-6 5h-26c-3 0-6-2-6-5v-20h-72c-4 0-6-3-6-7 0-1 0-2 1-3l8-16h-82v44c0 4-4 7-8 7h-38c-4 0-7-3-7-7v-44H10c-5 0-10-4-10-9 0-2 1-4 2-6l52-90H33c-4 0-8-4-8-8 0-2 1-4 2-5l48-83H63c-3 0-6-2-6-5 0-1 1-2 1-3l71-123c2-3 4-5 8-5s7 2 9 5l71 123c0 1 1 2 1 3 0 3-3 5-6 5h-12l49 84v1c1 1 1 2 1 3 0 4-4 8-8 8h-21l43 75 11-19h-15c-3 0-5-3-5-6v-2l35-60h-9c-2 0-4-2-4-4 0-1 1-1 1-2l50-87c1-2 3-4 6-4s5 2 6 4l50 87c0 1 1 1 1 2 0 2-2 4-4 4h-8l34 60c0 1 1 1 1 2 0 3-3 6-6 6h-15l38 65z"/></svg>