<svg xmlns="http://www.w3.org/2000/svg" id="calendar" viewBox="0 0 26 26" width="64" height="64"><path fill="#E67E22" d="M7 0c-.55 0-1 .45-1 1v3c0 .55.45 1 1 1s1-.45 1-1V1c0-.55-.45-1-1-1zm12 0c-.55 0-1 .45-1 1v3c0 .55.45 1 1 1s1-.45 1-1V1c0-.55-.45-1-1-1zM3 2C1.344 2 0 3.344 0 5v18c0 1.656 1.344 3 3 3h20c1.656 0 3-1.344 3-3V5c0-1.656-1.344-3-3-3h-2v2c0 1.104-.896 2-2 2s-2-.896-2-2V2H9v2c0 1.104-.896 2-2 2s-2-.896-2-2V2H3zM2 9h22v14c0 .55-.45 1-1 1H3c-.55 0-1-.45-1-1V9zm7 3v2.313h4.813l-3.782 7.656h3.47l3.47-8.44V12H9z"/></svg>
