<svg xmlns="http://www.w3.org/2000/svg" id="directions" viewBox="0 0 513.106 514.032" width="64" height="64"><path d="M509.08 94.048l-49.848-55.672C456.2 34.952 451.84 33 447.264 33H272.136V16.016c0-8.28-7.168-15-16-15s-16 6.72-16 15V33H112.232c-8.84 0-16 7.16-16 16v111.832c0 8.84 7.16 16 16 16h127.904v32.048H65.84c-4.576 0-8.936 1.952-11.968 5.376l-49.84 56.656c-5.376 6.064-5.376 15.184 0 21.248l49.84 56.144c3.056 3.424 7.392 4.872 11.968 4.872h174.296v144.84c0 8.28 7.168 15 16 15s16-6.72 16-15v-144.84h128.232c8.84 0 16-7.16 16-16V224.872c0-8.84-7.16-16-16-16H272.136v-32.048h175.128c4.576 0 8.936-1.952 11.968-5.376l49.848-56.16c5.368-6.056 5.368-15.176 0-21.24zM384.376 321.176H73.032l-35.64-39.64 35.64-40.656h311.344v80.296zm55.696-176.344h-311.84V65h311.84l35.64 39.672-35.64 40.16z"/></svg>