<svg xmlns="http://www.w3.org/2000/svg" id="traffic" viewBox="0 0 512 512" width="64" height="64"><path d="M225.5 179q12.5 13 30.5 13t30.5-13q12.5-13 12.5-30 0-18-12.5-30T256 107q-18 0-30.5 12T213 149q0 17 12.5 30zm0 107q12.5 13 30.5 13t30.5-13q12.5-13 12.5-30t-13-30q-13-13-30-13-18 0-30.5 13T213 256q0 17 12.5 30zm0 106.5Q238 405 256 405t30.5-12.5Q299 380 299 363t-13-30q-13-13-30-13-18 0-30.5 13T213 363q0 17 12.5 29.5zM427 213q0 30-18 52.5T363 296v24h64q0 30-18 52t-46 30v25q0 9-6.5 15t-15.5 6H171q-9 0-15.5-6t-6.5-15v-25q-28-8-46-30t-18-52h64v-24q-28-8-46-30.5T85 213h64v-24q-28-8-46-30t-18-52h64V85q0-9 6.5-15t15.5-6h170q9 0 15.5 6t6.5 15v22h64q0 30-18 52t-46 30v24h64z"/></svg>