<svg xmlns="http://www.w3.org/2000/svg" id="fountain" viewBox="0 0 1024 1234" width="64" height="64"><path d="M992 581h-32q0 80-79 145t-205 93q-50 25-75 43.5T576 901q0 27 18.5 45.5T640 965h32q13 0 22.5 9.5T704 997t-9.5 22.5-22.5 9.5H352q-13 0-22.5-9.5T320 997t9.5-22.5T352 965h32q26 0 45-19t19-45q0-20-25-38.5T348 819q-126-28-205-93T64 581H32q-13 0-22.5-9.5T0 549t9.5-22.5T32 517h416V389q0-27 19-45.5t45.5-18.5 45 18.5T576 389v128h416q13 0 22.5 9.5t9.5 22.5-9.5 22.5T992 581zm-64-192q-13 0-22.5-9.5T896 357t9.5-22.5T928 325t22.5 9.5T960 357t-9.5 22.5T928 389zm0-128q-13 0-22.5-9.5T896 229t9.5-22.5T928 197t22.5 9.5T960 229t-9.5 22.5T928 261zm-64-128q-13 0-22.5-9.5T832 101t9.5-22.5T864 69t22.5 9.5T896 101t-9.5 22.5T864 133zM736 69q-13 0-22.5-9.5T704 37t9.5-22.5T736 5t22.5 9.5T768 37t-9.5 22.5T736 69zm-128 64q-13 0-22.5-9.5T576 101t9.5-22.5T608 69t22.5 9.5T640 101t-9.5 22.5T608 133zM480 261q13 0 22.5 9.5T512 293t-9.5 22.5T480 325t-22.5-9.5T448 293t9.5-22.5T480 261zm64 0q13 0 22.5 9.5T576 293t-9.5 22.5T544 325t-22.5-9.5T512 293t9.5-22.5T544 261zm0-64q-13 0-22.5-9.5T512 165t9.5-22.5T544 133t22.5 9.5T576 165t-9.5 22.5T544 197zm-64 0q-13 0-22.5-9.5T448 165t9.5-22.5T480 133t22.5 9.5T512 165t-9.5 22.5T480 197zm-64-64q-13 0-22.5-9.5T384 101t9.5-22.5T416 69t22.5 9.5T448 101t-9.5 22.5T416 133zM288 69q-13 0-22.5-9.5T256 37t9.5-22.5T288 5t22.5 9.5T320 37t-9.5 22.5T288 69zm-128 64q-13 0-22.5-9.5T128 101t9.5-22.5T160 69t22.5 9.5T192 101t-9.5 22.5T160 133zM96 325q13 0 22.5 9.5T128 357t-9.5 22.5T96 389t-22.5-9.5T64 357t9.5-22.5T96 325zm0-64q-13 0-22.5-9.5T64 229t9.5-22.5T96 197t22.5 9.5T128 229t-9.5 22.5T96 261z"/></svg>