<?xml version="1.0" standalone="no"?>
<!DOCTYPE svg PUBLIC "-//W3C//DTD SVG 20010904//EN"
 "http://www.w3.org/TR/2001/REC-SVG-20010904/DTD/svg10.dtd">
<svg version="1.0" xmlns="http://www.w3.org/2000/svg"
 width="832.000000pt" height="832.000000pt" viewBox="0 0 832.000000 832.000000"
 preserveAspectRatio="xMidYMid meet">
<metadata>
Created by potrace 1.11, written by Peter Selinger 2001-2013
</metadata>
<g transform="translate(0.000000,832.000000) scale(0.100000,-0.100000)"
fill="#000000" stroke="none">
<path d="M5998 7325 c-2 -2 -31 -7 -63 -11 -33 -3 -68 -10 -77 -15 -10 -5 -18
-8 -18 -5 0 7 -150 -41 -203 -64 -26 -12 -50 -21 -54 -21 -5 0 -15 -6 -23 -13
-8 -6 -28 -18 -45 -26 -16 -8 -32 -17 -35 -20 -3 -3 -31 -22 -62 -43 -331
-223 -544 -629 -552 -1051 -1 -49 -2 -51 -102 -150 -186 -185 -316 -389 -404
-633 -13 -35 -26 -63 -31 -63 -4 0 -31 14 -59 30 -28 17 -53 30 -55 30 -2 0
-30 15 -62 34 -32 18 -79 45 -105 60 -87 48 -132 73 -283 161 -82 48 -163 95
-180 105 -83 48 -136 81 -183 114 -29 20 -56 36 -61 36 -5 0 -11 4 -13 9 -7
19 -104 58 -136 55 -46 -5 -75 -22 -253 -140 -85 -57 -161 -104 -167 -104 -7
0 -12 -3 -12 -7 0 -5 -19 -17 -43 -28 -23 -11 -44 -22 -47 -25 -3 -3 -112 -66
-244 -140 -131 -74 -250 -142 -265 -150 -57 -33 -147 -86 -162 -95 -9 -5 -43
-25 -75 -43 -70 -38 -106 -59 -154 -89 -19 -11 -51 -30 -70 -41 -33 -18 -237
-138 -785 -460 -126 -74 -244 -143 -262 -153 -17 -10 -50 -29 -72 -43 -22 -15
-43 -26 -46 -26 -2 0 -28 -15 -57 -33 -29 -19 -114 -67 -188 -107 -197 -106
-266 -159 -279 -214 -8 -34 -6 -216 4 -281 12 -85 14 -236 3 -264 -6 -17 -5
-27 3 -32 6 -3 89 -7 183 -7 166 -1 305 -8 314 -16 4 -5 6 -324 2 -341 -1 -5
-1 -14 0 -20 1 -5 2 -237 1 -515 -1 -463 -1 -546 0 -582 0 -7 0 -191 -1 -408
0 -217 0 -416 0 -443 l0 -47 2643 4 c1453 2 2663 5 2690 6 27 1 47 7 48 14 0
6 2 283 4 616 5 765 14 1605 18 1648 2 17 0 32 -4 32 -3 0 -4 11 -2 24 5 22 9
23 66 22 34 -1 74 2 90 5 15 4 27 5 27 1 0 -8 184 -6 205 2 8 3 15 2 15 -2 0
-9 58 -8 66 1 12 12 15 61 19 342 l4 280 -52 35 c-29 19 -110 69 -182 112 -71
43 -137 83 -145 88 -8 5 -42 23 -75 41 -33 17 -62 34 -65 38 -3 3 -14 11 -25
17 -11 6 -56 30 -100 54 -44 24 -96 52 -115 63 -19 11 -55 31 -80 45 -25 14
-135 77 -245 140 -110 63 -225 128 -255 145 -108 60 -179 123 -181 161 -6 79
17 177 62 274 117 246 248 383 471 489 87 41 83 27 48 153 -40 141 -42 327 -5
418 8 17 12 32 10 32 -9 0 38 98 70 145 47 70 142 165 165 165 6 0 10 4 10 8
0 13 136 77 201 96 425 121 852 -122 915 -520 14 -89 7 -262 -12 -326 -3 -9
-7 -26 -9 -39 -2 -12 -9 -37 -16 -56 -12 -38 -9 -45 22 -50 56 -9 187 -90 260
-163 114 -112 224 -299 245 -417 1 -6 7 -27 13 -45 31 -100 33 -337 2 -451
-23 -88 -78 -211 -116 -261 -30 -40 -31 -48 -5 -71 11 -10 20 -15 20 -11 0 4
7 0 16 -9 9 -9 28 -24 43 -33 27 -18 115 -97 162 -147 57 -59 109 -120 109
-127 0 -4 14 -27 30 -52 62 -91 128 -269 145 -391 4 -27 9 -66 12 -85 12 -86
6 -268 -11 -356 -22 -112 -76 -259 -125 -343 -17 -28 -31 -56 -31 -61 0 -4 -3
-10 -7 -12 -5 -1 -24 -25 -42 -53 -19 -27 -73 -88 -120 -135 -92 -91 -110
-107 -159 -136 -18 -10 -32 -22 -32 -26 0 -4 -4 -8 -10 -8 -5 0 -31 -13 -57
-29 -41 -23 -113 -54 -228 -97 -23 -8 -22 -8 -95 -23 -30 -6 -68 -13 -85 -17
-46 -9 -284 -13 -342 -5 -34 5 -54 4 -56 -3 -13 -33 -15 -1136 -2 -1144 11 -8
531 -13 550 -6 14 6 15 37 16 364 l0 265 132 44 c73 24 141 49 152 55 11 6 22
11 25 12 40 10 205 95 313 162 163 100 342 259 439 390 24 31 45 59 48 62 14
12 89 142 120 205 18 39 37 78 42 87 29 62 91 283 102 368 4 25 10 72 15 105
12 81 7 385 -7 460 -6 33 -13 71 -16 85 -13 80 -58 220 -96 305 -10 22 -26 58
-36 80 -10 22 -25 51 -35 65 -9 14 -18 30 -19 35 -3 17 -164 261 -181 275 -4
3 -18 22 -33 44 -18 26 -23 43 -17 55 13 25 41 156 47 224 12 121 6 298 -12
377 -3 14 -7 39 -10 55 -16 94 -69 246 -127 365 -83 170 -164 278 -295 392
-64 57 -71 79 -77 263 -2 66 -6 134 -10 150 -8 40 -35 135 -46 160 -4 11 -18
45 -30 75 -13 30 -36 76 -51 101 -15 25 -28 49 -28 53 0 4 -6 14 -12 21 -28
31 -38 44 -38 51 0 8 -102 125 -150 173 -64 63 -184 148 -280 199 -91 48 -242
106 -305 116 -16 3 -62 12 -102 19 -66 13 -335 22 -345 12z m-2707 -2219 c116
-59 201 -106 337 -190 74 -44 146 -88 160 -97 15 -9 95 -59 177 -111 83 -52
157 -97 165 -101 15 -7 28 -15 80 -48 14 -9 45 -27 70 -41 25 -14 132 -77 238
-139 106 -63 200 -119 210 -124 9 -6 24 -14 32 -20 8 -5 17 -10 20 -10 3 0 16
-8 30 -17 71 -45 232 -138 240 -138 6 0 10 -4 10 -10 0 -5 6 -10 14 -10 8 0
52 -22 97 -48 56 -32 90 -59 103 -81 21 -36 20 -15 13 -438 -1 -57 -4 -103 -7
-103 -3 0 -6 -397 -7 -881 -1 -485 -5 -884 -8 -887 -6 -7 -4063 -10 -4105 -4
l-26 4 -3 166 c-4 195 -4 761 2 1572 l3 575 135 83 c74 45 143 87 154 93 11 5
32 17 47 27 34 21 322 191 363 213 17 9 54 31 83 48 29 17 57 31 62 31 6 0 10
4 10 8 0 4 15 15 33 23 17 9 93 51 167 94 130 74 157 90 264 150 28 15 72 41
98 56 27 16 53 29 58 29 4 0 10 3 12 8 2 4 19 15 38 26 106 57 335 191 338
198 2 4 9 8 16 8 7 0 18 6 25 13 6 6 15 12 19 12 7 1 15 5 107 63 28 18 52 32
55 32 3 0 35 -15 71 -34z"/>
</g>
</svg>
